<svg width="206" height="185" viewBox="0 0 206 185" fill="none" xmlns="http://www.w3.org/2000/svg">
<path d="M105.499 0.403167L98.7962 2.13279L16.2154 23.4421L9.51251 25.1717C6.25901 26.0152 3.47273 28.1156 1.76494 31.0121C0.0571475 33.9086 -0.432678 37.3647 0.402924 40.6221L29.4681 153.401C30.311 156.657 32.4101 159.445 35.3047 161.154C38.1994 162.862 41.6533 163.353 44.9087 162.516L44.926 162.512L140.878 137.752L140.895 137.748C144.149 136.904 146.935 134.804 148.643 131.908C150.351 129.011 150.84 125.555 150.005 122.298L120.94 9.51854C120.097 6.26299 117.998 3.47494 115.103 1.76607C112.208 0.0571904 108.754 -0.432954 105.499 0.403167Z" fill="#F2F2F2"/>
<path d="M106.411 3.93923L98.4715 5.98785L18.3629 26.6592L10.4239 28.7078C8.10704 29.3085 6.12285 30.8042 4.90669 32.8669C3.69052 34.9295 3.3417 37.3907 3.93675 39.7104L33.0019 152.489C33.6022 154.808 35.097 156.793 37.1583 158.01C39.2197 159.227 41.6793 159.576 43.9975 158.981L44.0149 158.976L139.967 134.216L139.984 134.212C142.301 133.611 144.285 132.116 145.501 130.053C146.717 127.99 147.066 125.529 146.471 123.209L117.406 10.4305C116.806 8.11217 115.311 6.12675 113.25 4.90982C111.188 3.69289 108.729 3.34383 106.411 3.93923Z" fill="white"/>
<path d="M100.416 40.46L51.8762 52.9853C51.334 53.1252 50.7585 53.0439 50.2763 52.7592C49.7941 52.4746 49.4447 52.0099 49.3049 51.4674C49.1651 50.9249 49.2464 50.3491 49.5309 49.8666C49.8153 49.3841 50.2797 49.0344 50.8219 48.8945L99.3616 36.3692C99.9036 36.2299 100.479 36.3115 100.96 36.5962C101.442 36.881 101.791 37.3454 101.931 37.8876C102.071 38.4298 101.99 39.0053 101.706 39.4876C101.421 39.97 100.958 40.3197 100.416 40.46Z" fill="#F2F2F2"/>
<path d="M110.627 45.1876L53.6552 59.8887C53.1131 60.0286 52.5376 59.9473 52.0554 59.6626C51.5732 59.3779 51.2238 58.9132 51.084 58.3707C50.9442 57.8283 51.0254 57.2524 51.3099 56.7699C51.5944 56.2874 52.0588 55.9377 52.601 55.7978L109.573 41.0967C110.115 40.9568 110.69 41.0381 111.173 41.3228C111.655 41.6075 112.004 42.0722 112.144 42.6147C112.284 43.1571 112.203 43.733 111.918 44.2155C111.634 44.698 111.169 45.0477 110.627 45.1876Z" fill="#F2F2F2"/>
<path d="M108.389 71.3972L59.8492 83.9225C59.5807 83.9917 59.3013 84.0074 59.0268 83.9686C58.7523 83.9298 58.4881 83.8373 58.2494 83.6963C58.0106 83.5554 57.8019 83.3688 57.6352 83.1471C57.4686 82.9254 57.3471 82.6731 57.2779 82.4045C57.2087 82.1359 57.193 81.8563 57.2318 81.5816C57.2705 81.3069 57.363 81.0426 57.5039 80.8037C57.6447 80.5648 57.8313 80.3559 58.0528 80.1892C58.2743 80.0224 58.5265 79.9009 58.7949 79.8316L107.335 67.3063C107.603 67.237 107.883 67.2213 108.157 67.2601C108.432 67.2989 108.696 67.3915 108.935 67.5324C109.173 67.6734 109.382 67.86 109.549 68.0817C109.715 68.3033 109.837 68.5556 109.906 68.8243C109.975 69.0929 109.991 69.3725 109.952 69.6472C109.913 69.9218 109.821 70.1862 109.68 70.4251C109.539 70.664 109.353 70.8728 109.131 71.0396C108.91 71.2064 108.657 71.3279 108.389 71.3972Z" fill="#F2F2F2"/>
<path d="M118.6 76.1246L61.6283 90.8257C61.3599 90.895 61.0804 90.9107 60.8059 90.8719C60.5314 90.8331 60.2672 90.7406 60.0285 90.5996C59.7897 90.4587 59.581 90.272 59.4143 90.0504C59.2477 89.8287 59.1262 89.5764 59.057 89.3078C58.9878 89.0392 58.9721 88.7595 59.0109 88.4849C59.0497 88.2102 59.1421 87.9459 59.283 87.7069C59.4239 87.468 59.6104 87.2592 59.8319 87.0924C60.0534 86.9256 60.3056 86.8041 60.574 86.7349L117.546 72.0337C118.088 71.8938 118.663 71.9752 119.146 72.2598C119.628 72.5445 119.977 73.0092 120.117 73.5517C120.257 74.0942 120.176 74.67 119.891 75.1525C119.607 75.635 119.142 75.9847 118.6 76.1246Z" fill="#F2F2F2"/>
<path d="M116.362 102.334L67.8222 114.859C67.2802 114.999 66.7051 114.917 66.2232 114.633C65.7413 114.348 65.3921 113.883 65.2524 113.341C65.1126 112.799 65.1938 112.223 65.478 111.741C65.7622 111.259 66.2262 110.909 66.768 110.769L115.308 98.2433C115.85 98.1034 116.425 98.1848 116.908 98.4694C117.39 98.7541 117.739 99.2188 117.879 99.7613C118.019 100.304 117.938 100.88 117.653 101.362C117.369 101.845 116.904 102.194 116.362 102.334Z" fill="#F2F2F2"/>
<path d="M126.573 107.062L69.6013 121.763C69.3328 121.832 69.0532 121.848 68.7785 121.81C68.5038 121.771 68.2395 121.678 68.0005 121.538C67.7615 121.397 67.5527 121.21 67.3859 120.988C67.219 120.766 67.0975 120.514 67.0282 120.245C66.959 119.976 66.9433 119.697 66.9822 119.422C67.021 119.147 67.1136 118.883 67.2547 118.644C67.3957 118.405 67.5825 118.196 67.8042 118.029C68.026 117.862 68.2784 117.741 68.5471 117.672L125.519 102.971C126.061 102.831 126.637 102.912 127.119 103.197C127.601 103.482 127.95 103.946 128.09 104.489C128.23 105.031 128.149 105.607 127.864 106.09C127.58 106.572 127.115 106.922 126.573 107.062Z" fill="#F2F2F2"/>
<path d="M43.5897 65.8282L26.412 70.2608C26.152 70.3275 25.8762 70.2884 25.6451 70.1519C25.4139 70.0155 25.2463 69.7929 25.179 69.5329L21.2359 54.2327C21.1692 53.9726 21.2083 53.6966 21.3446 53.4653C21.481 53.234 21.7035 53.0663 21.9633 52.999L39.1411 48.5664C39.401 48.4996 39.6768 48.5388 39.9079 48.6752C40.1391 48.8117 40.3067 49.0343 40.374 49.2942L44.3171 64.5945C44.3839 64.8546 44.3447 65.1305 44.2084 65.3618C44.072 65.5931 43.8495 65.7608 43.5897 65.8282Z" fill="#E6E6E6"/>
<path d="M51.5627 96.7653L34.385 101.198C34.125 101.265 33.8492 101.226 33.6181 101.089C33.387 100.953 33.2194 100.73 33.1521 100.47L29.2089 85.1698C29.1422 84.9097 29.1813 84.6337 29.3177 84.4025C29.454 84.1712 29.6765 84.0035 29.9363 83.9361L47.1141 79.5035C47.374 79.4368 47.6498 79.4759 47.8809 79.6123C48.1121 79.7488 48.2797 79.9714 48.347 80.2314L52.2901 95.5316C52.3569 95.7917 52.3177 96.0677 52.1814 96.299C52.045 96.5302 51.8225 96.6979 51.5627 96.7653Z" fill="#E6E6E6"/>
<path d="M59.5358 127.702L42.358 132.135C42.0981 132.202 41.8223 132.163 41.5911 132.026C41.36 131.89 41.1924 131.667 41.1251 131.407L37.1819 116.107C37.1152 115.847 37.1543 115.571 37.2907 115.339C37.4271 115.108 37.6495 114.94 37.9093 114.873L55.0871 110.441C55.347 110.374 55.6228 110.413 55.854 110.549C56.0851 110.686 56.2527 110.908 56.32 111.168L60.2632 126.469C60.3299 126.729 60.2908 127.005 60.1544 127.236C60.0181 127.467 59.7956 127.635 59.5358 127.702Z" fill="#E6E6E6"/>
<path d="M172.445 28.9913H73.3182C69.9573 28.9951 66.7351 30.3328 64.3586 32.7108C61.9821 35.0888 60.6453 38.313 60.6415 41.676V158.145C60.6453 161.508 61.9821 164.732 64.3586 167.11C66.7351 169.488 69.9573 170.826 73.3182 170.829H172.445C175.806 170.826 179.028 169.488 181.405 167.11C183.781 164.732 185.118 161.508 185.122 158.145V41.676C185.118 38.313 183.781 35.0888 181.405 32.7108C179.028 30.3328 175.806 28.9951 172.445 28.9913Z" fill="#E6E6E6"/>
<path d="M172.445 32.6431H73.3182C70.9248 32.6458 68.6302 33.5983 66.9379 35.2918C65.2455 36.9852 64.2935 39.2812 64.2908 41.6761V158.145C64.2935 160.54 65.2455 162.836 66.9379 164.529C68.6302 166.223 70.9248 167.175 73.3182 167.178H172.445C174.839 167.175 177.133 166.223 178.826 164.529C180.518 162.836 181.47 160.54 181.473 158.145V41.6761C181.47 39.2813 180.518 36.9852 178.826 35.2918C177.133 33.5983 174.839 32.6458 172.445 32.6431Z" fill="white"/>
<path d="M182.859 185C195.639 185 206 174.633 206 161.845C206 149.056 195.639 138.689 182.859 138.689C170.079 138.689 159.718 149.056 159.718 161.845C159.718 174.633 170.079 185 182.859 185Z" fill="#09BF30"/>
<path d="M193.926 158.824H185.878V150.77C185.878 149.969 185.559 149.201 184.993 148.635C184.427 148.068 183.66 147.75 182.859 147.75C182.059 147.75 181.291 148.068 180.725 148.635C180.159 149.201 179.841 149.969 179.841 150.77V158.824H171.792C170.991 158.824 170.223 159.143 169.657 159.709C169.091 160.275 168.773 161.044 168.773 161.845C168.773 162.646 169.091 163.414 169.657 163.98C170.223 164.547 170.991 164.865 171.792 164.865H179.841V172.919C179.841 173.72 180.159 174.488 180.725 175.055C181.291 175.621 182.059 175.939 182.859 175.939C183.66 175.939 184.427 175.621 184.993 175.055C185.559 174.488 185.878 173.72 185.878 172.919V164.865H193.926C194.727 164.865 195.495 164.547 196.061 163.98C196.627 163.414 196.945 162.646 196.945 161.845C196.945 161.044 196.627 160.275 196.061 159.709C195.495 159.143 194.727 158.824 193.926 158.824Z" fill="white"/>
<path d="M157.526 96.6423H107.399C107.121 96.6426 106.847 96.5882 106.59 96.4822C106.334 96.3762 106.101 96.2206 105.904 96.0244C105.708 95.8283 105.552 95.5953 105.446 95.3389C105.34 95.0824 105.285 94.8075 105.285 94.5299C105.285 94.2523 105.34 93.9775 105.446 93.721C105.552 93.4646 105.708 93.2316 105.904 93.0355C106.101 92.8393 106.334 92.6837 106.59 92.5777C106.847 92.4717 107.121 92.4173 107.399 92.4176H157.526C158.086 92.4182 158.622 92.6411 159.018 93.0371C159.413 93.4332 159.635 93.9701 159.635 94.5299C159.635 95.0898 159.413 95.6267 159.018 96.0228C158.622 96.4188 158.086 96.6417 157.526 96.6423Z" fill="#E6E6E6"/>
<path d="M166.234 103.771H107.399C107.121 103.772 106.847 103.717 106.59 103.611C106.334 103.505 106.101 103.35 105.904 103.154C105.708 102.957 105.552 102.724 105.446 102.468C105.34 102.212 105.285 101.937 105.285 101.659C105.285 101.381 105.34 101.107 105.446 100.85C105.552 100.594 105.708 100.361 105.904 100.165C106.101 99.9684 106.334 99.8129 106.59 99.7069C106.847 99.6008 107.121 99.5464 107.399 99.5468H166.234C166.794 99.5468 167.331 99.7693 167.727 100.165C168.123 100.562 168.345 101.099 168.345 101.659C168.345 102.219 168.123 102.757 167.727 103.153C167.331 103.549 166.794 103.771 166.234 103.771Z" fill="#E6E6E6"/>
<path d="M157.526 128.592H107.399C107.121 128.592 106.847 128.537 106.59 128.431C106.334 128.325 106.101 128.17 105.904 127.974C105.708 127.777 105.552 127.545 105.446 127.288C105.34 127.032 105.285 126.757 105.285 126.479C105.285 126.202 105.34 125.927 105.446 125.67C105.552 125.414 105.708 125.181 105.904 124.985C106.101 124.788 106.334 124.633 106.59 124.527C106.847 124.421 107.121 124.367 107.399 124.367H157.526C158.086 124.367 158.623 124.589 159.019 124.986C159.415 125.382 159.637 125.919 159.637 126.479C159.637 127.039 159.415 127.577 159.019 127.973C158.623 128.369 158.086 128.592 157.526 128.592Z" fill="#E6E6E6"/>
<path d="M166.234 135.721H107.399C107.121 135.721 106.847 135.666 106.59 135.56C106.334 135.454 106.101 135.299 105.904 135.103C105.708 134.907 105.552 134.674 105.446 134.417C105.34 134.161 105.285 133.886 105.285 133.608C105.285 133.331 105.34 133.056 105.446 132.799C105.552 132.543 105.708 132.31 105.904 132.114C106.101 131.918 106.334 131.762 106.59 131.656C106.847 131.55 107.121 131.496 107.399 131.496H166.234C166.512 131.496 166.787 131.55 167.043 131.656C167.299 131.762 167.532 131.918 167.729 132.114C167.925 132.31 168.081 132.543 168.187 132.799C168.293 133.056 168.348 133.331 168.348 133.608C168.348 133.886 168.293 134.161 168.187 134.417C168.081 134.674 167.925 134.907 167.729 135.103C167.532 135.299 167.299 135.454 167.043 135.56C166.787 135.666 166.512 135.721 166.234 135.721Z" fill="#E6E6E6"/>
<path d="M96.1698 107.008H78.43C78.1617 107.007 77.9044 106.901 77.7146 106.711C77.5249 106.521 77.4181 106.263 77.4178 105.995V90.1941C77.4181 89.9256 77.5249 89.6681 77.7146 89.4783C77.9044 89.2884 78.1617 89.1816 78.43 89.1813H96.1698C96.4382 89.1816 96.6955 89.2884 96.8852 89.4783C97.075 89.6681 97.1817 89.9256 97.182 90.1941V105.995C97.1817 106.263 97.075 106.521 96.8852 106.711C96.6955 106.901 96.4382 107.007 96.1698 107.008Z" fill="#E6E6E6"/>
<path d="M96.1698 138.957H78.43C78.1617 138.957 77.9044 138.85 77.7146 138.66C77.5249 138.47 77.4181 138.213 77.4178 137.944V122.143C77.4181 121.875 77.5249 121.617 77.7146 121.427C77.9044 121.237 78.1617 121.131 78.43 121.13H96.1698C96.4382 121.131 96.6955 121.237 96.8852 121.427C97.075 121.617 97.1817 121.875 97.182 122.143V137.944C97.1817 138.213 97.075 138.47 96.8852 138.66C96.6955 138.85 96.4382 138.957 96.1698 138.957Z" fill="#E6E6E6"/>
<path d="M157.582 61.0765H120.625C120.065 61.0765 119.528 60.8539 119.132 60.4578C118.736 60.0617 118.514 59.5244 118.514 58.9641C118.514 58.4039 118.736 57.8666 119.132 57.4705C119.528 57.0744 120.065 56.8518 120.625 56.8518H157.582C158.142 56.8518 158.679 57.0744 159.075 57.4705C159.471 57.8666 159.693 58.4039 159.693 58.9641C159.693 59.5244 159.471 60.0617 159.075 60.4578C158.679 60.8539 158.142 61.0765 157.582 61.0765Z" fill="#CCCCCC"/>
<path d="M166.29 68.2056H120.625C120.348 68.2056 120.073 68.151 119.817 68.0448C119.561 67.9387 119.328 67.7831 119.132 67.5869C118.936 67.3908 118.781 67.1579 118.675 66.9017C118.569 66.6454 118.514 66.3707 118.514 66.0933C118.514 65.8159 118.569 65.5412 118.675 65.2849C118.781 65.0287 118.936 64.7958 119.132 64.5996C119.328 64.4035 119.561 64.2479 119.817 64.1417C120.073 64.0356 120.348 63.981 120.625 63.981H166.29C166.85 63.981 167.387 64.2035 167.783 64.5996C168.179 64.9958 168.401 65.5331 168.401 66.0933C168.401 66.6535 168.179 67.1908 167.783 67.5869C167.387 67.9831 166.85 68.2056 166.29 68.2056Z" fill="#CCCCCC"/>
<path d="M112.446 76.8453H78.3744C78.106 76.845 77.8488 76.7382 77.659 76.5484C77.4692 76.3585 77.3625 76.101 77.3622 75.8325V49.225C77.3625 48.9565 77.4692 48.699 77.659 48.5091C77.8488 48.3193 78.106 48.2125 78.3744 48.2122H112.446C112.714 48.2125 112.971 48.3193 113.161 48.5091C113.351 48.699 113.458 48.9565 113.458 49.225V75.8325C113.458 76.101 113.351 76.3585 113.161 76.5484C112.971 76.7382 112.714 76.845 112.446 76.8453Z" fill="#09BF30"/>
</svg>
