<svg width="221" height="178" viewBox="0 0 221 178" fill="none" xmlns="http://www.w3.org/2000/svg">
<g clip-path="url(#clip0_626_83)">
<path d="M153.891 173.253L149.8 173.253L147.854 157.45H153.891L153.891 173.253Z" fill="#FFB6B6"/>
<path d="M153.781 171.915L149.414 170.136L149.289 170.084L146.877 171.915C145.516 171.915 144.21 172.457 143.247 173.421C142.284 174.386 141.743 175.693 141.743 177.057V177.224H154.933V171.915H153.781Z" fill="#1A192F"/>
<path d="M190.853 167.926L187.192 169.754L178.411 156.48L183.815 153.782L190.853 167.926Z" fill="#FFB6B6"/>
<path d="M191.192 166.262L190.256 166.728L190.159 166.776L185.465 167.139L185.323 167.149L183.98 169.863C183.376 170.164 182.838 170.581 182.396 171.091C181.953 171.6 181.616 172.192 181.402 172.833C181.188 173.473 181.102 174.149 181.15 174.823C181.197 175.497 181.376 176.154 181.677 176.758L181.751 176.906L193.555 171.016L191.192 166.262Z" fill="#1A192F"/>
<path d="M151.116 88.3116L173.673 89.1024L173.83 88.8736C173.83 88.8736 175.754 93.3701 175.754 97.2243C175.754 98.5058 174.865 106.887 175.317 108.473C175.373 108.67 174.986 109.153 175.113 110.072C175.195 110.667 175.65 110.209 175.754 111.035C175.829 111.628 175.029 111.955 175.113 112.641C175.204 113.39 176.305 115.817 176.404 116.651C177.459 125.524 178.863 138.378 178.863 138.378C178.863 138.378 184.502 153.506 185.695 153.752C187.698 154.165 189.05 157.812 187.94 158.57C187.412 158.931 180.582 161.361 180.582 161.361C180.207 161.429 179.033 160.839 179.781 159.444C179.919 159.187 179.098 159.841 178.961 159.534C178.816 159.207 179.101 157.906 178.935 157.543C177.442 154.285 175.151 149.771 172.979 147.453C169.771 144.027 167.739 139.665 167.18 135.002L162.199 107.34L160.492 115.097L159.079 116.495L159.467 119.755L159.4 122.919L155.872 136.087C155.872 136.087 155.343 160.68 156.193 161.461C156.653 161.884 158.606 167.093 154.91 167.563L148.196 167.044C148.196 167.044 147.291 165.135 147.743 164.455C148.196 163.776 148.169 163.961 147.617 162.849C147.065 161.737 147.291 159.852 147.291 159.852C146.412 150.996 146.065 142.095 146.252 133.197C146.589 118.582 148.628 101.792 148.628 101.45C148.645 101.101 148.581 100.752 148.44 100.431V99.5088L149.307 96.2402L151.116 88.3116Z" fill="#1F1F24"/>
<path d="M182.859 91.0742C187.779 91.0742 191.768 87.0795 191.768 82.1518C191.768 77.2241 187.779 73.2294 182.859 73.2294C177.939 73.2294 173.951 77.2241 173.951 82.1518C173.951 87.0795 177.939 91.0742 182.859 91.0742Z" fill="#09BF30"/>
<path d="M181.644 86.7954C181.49 86.7954 181.338 86.7595 181.201 86.6906C181.063 86.6217 180.944 86.5216 180.851 86.3983L178.421 83.1527C178.343 83.0484 178.286 82.9298 178.254 82.8035C178.221 82.6773 178.214 82.5459 178.233 82.4169C178.251 82.2878 178.295 82.1637 178.361 82.0516C178.427 81.9394 178.515 81.8414 178.619 81.7633C178.723 81.6851 178.842 81.6282 178.968 81.5958C179.094 81.5635 179.225 81.5563 179.354 81.5748C179.483 81.5932 179.607 81.6369 179.719 81.7033C179.831 81.7697 179.928 81.8575 180.006 81.9618L181.596 84.085L185.68 77.9498C185.752 77.8412 185.845 77.7479 185.953 77.6753C186.061 77.6027 186.183 77.5521 186.311 77.5264C186.438 77.5008 186.57 77.5006 186.697 77.5259C186.825 77.5512 186.947 77.6014 187.055 77.6738C187.163 77.7461 187.256 77.8391 187.329 77.9475C187.401 78.0559 187.452 78.1775 187.477 78.3054C187.503 78.4333 187.503 78.5649 187.477 78.6929C187.452 78.8208 187.402 78.9424 187.329 79.0509L182.469 86.3534C182.381 86.4855 182.262 86.5945 182.124 86.6714C181.985 86.7482 181.83 86.7906 181.672 86.7951C181.662 86.7952 181.653 86.7954 181.644 86.7954Z" fill="white"/>
<path d="M187.264 91.5844C187.351 91.2195 187.357 90.84 187.282 90.4726C187.206 90.1052 187.051 89.7589 186.828 89.458C186.604 89.1571 186.317 88.9089 185.988 88.731C185.658 88.553 185.293 88.4496 184.92 88.4281L180.355 72.8514L177.267 76.4406L182.18 91.0251C182.185 91.6566 182.422 92.2641 182.845 92.7325C183.268 93.2009 183.847 93.4977 184.474 93.5667C185.101 93.6356 185.731 93.4719 186.245 93.1065C186.76 92.7412 187.122 92.1996 187.264 91.5844Z" fill="#FFB8B8"/>
<path d="M184.044 83.9852L183.451 81.8076L184.131 80.5068L184.079 80.3559L183.874 79.7713L182.809 78.917L183.191 77.8282L181.844 73.9965L181.514 73.3316L173.782 57.7833L171.929 54.0543L171.499 53.3799L170.162 51.2793L168.334 48.4112C168.043 47.9528 167.665 47.5568 167.22 47.2464C166.775 46.9359 166.273 46.7172 165.743 46.6029C165.572 46.5652 165.398 46.5384 165.223 46.5226L165.098 46.513C164.786 46.4957 164.473 46.5141 164.165 46.5676H164.159C163.616 46.6619 163.098 46.8675 162.639 47.1714C162.277 47.406 161.954 47.6966 161.683 48.0322C161.059 48.8078 160.734 49.7827 160.769 50.7783L160.827 52.3456L160.885 53.7717L163.598 58.6858L163.774 59.007L163.777 59.0166L172.124 74.1442L174.642 78.705L175.023 79.3988L176.717 80.5229L176.264 81.6534L176.396 83.4135L177.836 84.5023L179.923 86.6253L180.007 86.7988L180.648 86.4744L180.709 86.4423L180.853 86.4005L182.838 85.7999L184.044 85.437L184.083 85.4241L184.413 85.3406L184.044 83.9852Z" fill="#E6E6E6"/>
<path d="M218.36 154.696C217.755 153.926 216.934 153.355 216.002 153.057C215.071 152.759 214.071 152.747 213.133 153.023L212.928 153.084L211.087 160.282C210.811 159.209 210.221 156.787 209.849 154.417L209.817 154.221L209.634 154.301C207.71 155.153 205.901 156.245 204.25 157.552C201.325 159.901 198.947 162.861 197.279 166.224C195.612 169.588 194.696 173.274 194.594 177.028L194.591 177.166L194.588 177.253L194.832 177.166L200.062 175.294C202.378 175.498 204.71 175.182 206.888 174.369C209.066 173.555 211.035 172.265 212.652 170.592C214.765 168.36 216.214 165.488 217.616 162.71C218.026 161.901 218.446 161.066 218.876 160.263C219.355 159.389 219.563 158.392 219.471 157.4C219.378 156.408 218.992 155.466 218.36 154.696Z" fill="#F2F2F2"/>
<path d="M84.1414 35.2144H83.5V10.4696H129.888V11.112H84.1414V35.2144Z" fill="#CECECE"/>
<path d="M137.002 17.8448C141.922 17.8448 145.911 13.8501 145.911 8.92242C145.911 3.9947 141.922 0 137.002 0C132.082 0 128.094 3.9947 128.094 8.92242C128.094 13.8501 132.082 17.8448 137.002 17.8448Z" fill="#09BF30"/>
<path d="M135.787 13.5662C135.633 13.5662 135.481 13.5303 135.344 13.4613C135.206 13.3924 135.086 13.2924 134.994 13.1691L132.564 9.92345C132.486 9.81918 132.429 9.70053 132.397 9.57428C132.364 9.44802 132.357 9.31663 132.376 9.1876C132.394 9.05858 132.438 8.93445 132.504 8.82231C132.57 8.71016 132.658 8.61219 132.762 8.53399C132.866 8.4558 132.985 8.3989 133.111 8.36656C133.237 8.33422 133.368 8.32706 133.497 8.3455C133.626 8.36393 133.749 8.40761 133.861 8.47401C133.973 8.54042 134.071 8.62827 134.149 8.73254L135.739 10.8557L139.823 4.72054C139.895 4.61197 139.988 4.51869 140.096 4.44605C140.204 4.37341 140.326 4.32283 140.453 4.2972C140.581 4.27156 140.712 4.27138 140.84 4.29666C140.968 4.32194 141.09 4.37218 141.198 4.44452C141.306 4.51687 141.399 4.60988 141.472 4.71826C141.544 4.82664 141.594 4.94825 141.62 5.07614C141.645 5.20403 141.646 5.3357 141.62 5.46362C141.595 5.59154 141.545 5.71319 141.472 5.82164L136.611 13.1242C136.524 13.2562 136.405 13.3653 136.267 13.4421C136.128 13.5189 135.973 13.5614 135.814 13.5658C135.805 13.566 135.796 13.5662 135.787 13.5662Z" fill="white"/>
<path d="M52.7148 95.2897H52.0735V120.034H98.462V119.392H52.7148V95.2897Z" fill="#CECECE"/>
<path d="M105.576 128.974C110.496 128.974 114.484 124.979 114.484 120.051C114.484 115.123 110.496 111.129 105.576 111.129C100.656 111.129 96.6671 115.123 96.6671 120.051C96.6671 124.979 100.656 128.974 105.576 128.974Z" fill="#09BF30"/>
<path d="M104.36 124.695C104.206 124.695 104.055 124.659 103.917 124.59C103.78 124.521 103.66 124.421 103.568 124.298L101.137 121.052C101.059 120.948 101.002 120.829 100.97 120.703C100.938 120.577 100.931 120.445 100.949 120.316C100.967 120.187 101.011 120.063 101.077 119.951C101.144 119.839 101.231 119.741 101.335 119.663C101.44 119.584 101.558 119.528 101.684 119.495C101.81 119.463 101.941 119.456 102.07 119.474C102.199 119.493 102.323 119.536 102.435 119.603C102.547 119.669 102.645 119.757 102.723 119.861L104.313 121.984L108.397 115.849C108.469 115.741 108.561 115.647 108.67 115.575C108.778 115.502 108.899 115.451 109.027 115.426C109.154 115.4 109.286 115.4 109.414 115.425C109.541 115.451 109.663 115.501 109.771 115.573C109.88 115.646 109.973 115.739 110.045 115.847C110.118 115.955 110.168 116.077 110.193 116.205C110.219 116.333 110.219 116.464 110.194 116.592C110.168 116.72 110.118 116.842 110.046 116.95L105.185 124.253C105.097 124.385 104.979 124.494 104.84 124.571C104.701 124.648 104.546 124.69 104.388 124.694C104.379 124.695 104.369 124.695 104.36 124.695Z" fill="white"/>
<path d="M176.075 96.1997C176.084 96.876 175.976 97.5488 175.754 98.1878L175.706 98.1782C170.011 99.1648 164.93 99.3263 162.58 95.8247C159.514 91.9141 155.296 91.9584 150.591 93.6752L150.033 93.0714L149.084 92.0468L149.956 91.0576L149.084 89.1498L149.812 86.7955L150.742 86.6253L150.491 84.5986L150.1 83.4135L151.248 82.1512L152.223 79.0004L151.521 72.4066C150.56 63.3683 152.422 54.254 156.85 46.3202L159.515 43.9242L160.622 42.9286L162.106 40.1536L163.674 40.3366L167.92 40.828L168.065 41.1749L169.107 43.693L174.597 49.5995L174.35 52.0919L174.241 53.1903L174.161 53.9804L173.782 57.7832L172.24 73.3187L172.124 74.1442L170.883 83.0762C172.9 85.029 174.683 88.7901 175.54 92.2267C175.636 92.6089 175.363 92.9975 175.434 93.3701C175.533 93.8968 175.966 94.3979 176.014 94.8893C176.059 95.3246 176.079 95.7621 176.075 96.1997Z" fill="#E6E6E6"/>
<path d="M165.201 39.1589C169.274 39.1589 172.576 35.8521 172.576 31.7729C172.576 27.6938 169.274 24.387 165.201 24.387C161.129 24.387 157.827 27.6938 157.827 31.7729C157.827 35.8521 161.129 39.1589 165.201 39.1589Z" fill="#FFB6B6"/>
<path d="M174.091 29.758C173.655 28.3952 172.457 27.2421 171.036 27.0914C171.144 26.1863 171.002 25.2689 170.625 24.4391C170.248 23.6094 169.651 22.8991 168.899 22.3856C168.147 21.8721 167.269 21.5751 166.36 21.5269C165.451 21.4787 164.547 21.6811 163.745 22.1122C163.574 21.9071 163.354 21.7496 163.105 21.6548C162.856 21.5601 162.587 21.5313 162.324 21.5713C161.797 21.6582 161.301 21.876 160.88 22.2047C159.836 22.97 159.018 24.0048 158.513 25.1988C158.009 26.3928 157.838 27.7014 158.017 28.9853C158.014 28.334 158.302 29.594 159.128 29.7054C159.816 29.8441 160.472 30.1148 161.057 30.5026C161.643 30.8903 162.296 31.1645 162.983 31.311C163.676 31.4125 163.855 34.1952 163.36 35.9874C163.266 36.3271 163.218 36.7828 163.531 36.9447C163.916 37.144 164.305 36.6428 164.736 36.594C164.929 36.5909 165.116 36.6631 165.257 36.7953C165.398 36.9276 165.482 37.1095 165.492 37.3027C165.492 37.4967 165.446 37.6879 165.358 37.8604C165.27 38.033 165.142 38.182 164.984 38.2949C164.668 38.5176 164.317 38.6876 163.947 38.7984L164.071 38.9752C164.18 39.1772 164.355 39.3351 164.568 39.4218C164.78 39.5085 165.016 39.5185 165.235 39.4501C165.728 40.0459 170.809 38.3917 171.057 37.3043C172.122 36.3439 173.005 35.2003 173.667 33.9277C174.328 32.641 174.48 31.1517 174.091 29.758Z" fill="#1F1E2B"/>
<path d="M180.055 52.2524C179.952 53.1132 179.147 53.7555 178.301 53.9354C177.87 54.0184 177.429 54.026 176.996 53.9579C176.572 53.895 176.154 53.8016 175.745 53.6785C175.238 53.5339 174.737 53.3712 174.241 53.1903C172.824 52.6836 171.458 52.0437 170.162 51.2792C169.182 50.706 168.243 50.0642 167.353 49.3586C166.891 48.9924 166.443 48.6102 166.009 48.2119L166.551 48.4689C166.067 47.8169 165.583 47.1649 165.098 46.5129C164.63 45.8834 164.163 45.2539 163.697 44.6244C163.668 44.5858 163.646 44.5601 163.636 44.5473V44.5441C163.421 44.2582 163.209 43.9724 162.998 43.6865C162.36 42.829 161.731 41.5699 162.466 40.7959C162.622 40.6451 162.812 40.5337 163.02 40.4706C163.228 40.4075 163.448 40.3946 163.662 40.4329C163.892 40.4629 164.115 40.5347 164.319 40.6449C164.88 41.0087 165.356 41.4897 165.714 42.0549C166.214 41.3258 167.186 41.056 168.065 41.1749C168.113 41.1781 168.158 41.1845 168.202 41.1909C169.116 41.3483 169.511 40.8537 170.303 41.3387C170.672 41.5635 170.896 42.7197 171.265 42.9446C171.473 43.073 172.246 43.2658 172.458 43.3974C172.875 43.6544 172.769 44.6147 173.189 44.8717C173.5 45.0612 174.334 44.5505 174.645 44.74C174.972 44.9423 175.427 46.2784 175.754 46.4776C176.405 46.879 176.928 46.1468 177.579 46.545C178.416 47.0621 179.308 47.637 179.66 48.5556C179.971 49.365 179.571 50.4731 178.798 50.7043C179.167 50.7485 179.504 50.9347 179.739 51.2236C179.974 51.5125 180.087 51.8814 180.055 52.2524Z" fill="#E6E6E6"/>
<path opacity="0.2" d="M174.241 53.1903L174.161 53.9804C173.252 53.8928 172.358 53.691 171.499 53.3798C170.369 52.9998 169.388 52.2699 168.699 51.2954C168.263 50.6402 167.808 49.9882 167.353 49.3587C166.596 48.3052 165.845 47.3224 165.223 46.5226C164.463 45.5559 163.893 44.8557 163.697 44.6244C163.668 44.5859 163.646 44.5602 163.636 44.5474L163.626 44.5377L163.636 44.5441C167.446 49.3742 171.045 52.1595 174.35 52.0919C174.35 52.0919 174.738 53.3702 174.241 53.1903Z" fill="black"/>
<path d="M139.372 14.511C139.278 14.8741 139.265 15.2534 139.333 15.6222C139.401 15.991 139.55 16.3402 139.767 16.6454C139.985 16.9506 140.267 17.2043 140.593 17.3886C140.919 17.5729 141.282 17.6833 141.655 17.7121L145.918 33.3743L149.075 29.8457L144.444 15.1687C144.451 14.5372 144.226 13.9252 143.813 13.4487C143.399 12.9722 142.825 12.6642 142.2 12.5831C141.574 12.5021 140.941 12.6535 140.42 13.0088C139.899 13.3642 139.526 13.8986 139.372 14.511Z" fill="#FFB8B8"/>
<path d="M164.399 54.5617L164.37 53.1357L161.683 48.0321L161.584 47.8458L161.577 47.8362L159.515 43.9242L149.565 25.0304L148.497 24.6373L148.55 23.1025L148.497 21.4254L147.213 20.5634L146.666 19.524L145.89 19.7457H145.886L145.864 19.7521L142.471 20.706H142.468L141.762 21.1043L141.121 23.0313L140.981 23.9437L141.121 25.6008L142.725 25.922L142.193 27.6212L143.805 32.5094C145.822 41.0528 148.577 48.4272 153.333 52.6378L153.724 53.2802L156.818 58.3517C157.241 59.0454 157.859 59.5983 158.594 59.9407C159.33 60.2831 160.15 60.3996 160.952 60.2755H160.955C161.499 60.1909 162.021 59.9964 162.488 59.7038C162.919 59.4377 163.295 59.0922 163.598 58.6857C164.15 57.9507 164.442 57.0522 164.428 56.1323L164.399 54.5617Z" fill="#E6E6E6"/>
<path d="M220.618 177.901L133.474 178C133.372 178 133.275 177.96 133.204 177.888C133.132 177.816 133.092 177.719 133.092 177.618C133.092 177.516 133.132 177.419 133.204 177.347C133.275 177.275 133.372 177.235 133.474 177.235L220.618 177.136C220.719 177.136 220.817 177.177 220.888 177.248C220.96 177.32 221 177.417 221 177.519C221 177.62 220.96 177.718 220.888 177.789C220.817 177.861 220.719 177.901 220.618 177.901Z" fill="#CACACA"/>
<path d="M26.8179 49.3682C26.8125 44.5402 28.6542 39.8937 31.9642 36.3839L20.6047 20.7246C20.1371 20.0794 19.5362 19.5428 18.8429 19.1512C18.1495 18.7596 17.3801 18.5222 16.587 18.4553C15.7938 18.3883 14.9956 18.4933 14.2466 18.7632C13.4976 19.033 12.8155 19.4613 12.2467 20.019C8.35538 23.8182 5.26609 28.362 3.16229 33.3803C1.05849 38.3987 -0.0169172 43.7893 -4.873e-05 49.2321C-1.70457e-05 51.2874 0.152974 53.3399 0.457644 55.3725C0.577168 56.1761 0.870269 56.9439 1.31651 57.6223C1.76276 58.3008 2.35141 58.8736 3.0414 59.3008C3.7236 59.7237 4.48971 59.9925 5.28628 60.0883C6.08284 60.1842 6.8907 60.1048 7.65351 59.8558L27.268 53.4727C26.9695 52.125 26.8186 50.7487 26.8179 49.3682Z" fill="#F2F2F2"/>
<path d="M27.861 55.5731L7.46907 62.2092C6.71439 62.4536 6.02096 62.8575 5.43578 63.3938C4.8506 63.93 4.38733 64.5859 4.07738 65.3171C3.76743 66.0483 3.61804 66.8377 3.63932 67.6318C3.66061 68.4259 3.85207 69.2061 4.20074 69.9196C7.10472 75.8204 11.3855 80.9335 16.6807 84.826C21.9759 88.7185 28.1296 91.2758 34.6208 92.2814C35.4113 92.4031 36.2188 92.3521 36.9878 92.1318C37.7569 91.9116 38.4692 91.5273 39.076 91.0055C39.682 90.485 40.1684 89.8393 40.5017 89.1128C40.8351 88.3863 41.0075 87.5961 41.0071 86.7965V67.7208C37.987 66.9359 35.2069 65.4166 32.9137 63.2975C30.6204 61.1784 28.8849 58.5251 27.861 55.5731Z" fill="#E6E6E6"/>
<path d="M89.1849 67.4918C88.8406 66.673 88.3243 65.938 87.671 65.3369C87.0178 64.7359 86.243 64.2827 85.3993 64.0083L63.1592 56.7708C61.8609 59.8287 59.7832 62.4914 57.1342 64.492C54.4851 66.4926 51.3577 67.761 48.0652 68.17V91.3784C48.0656 92.2692 48.2584 93.1495 48.6302 93.9588C49.0019 94.7681 49.544 95.4873 50.2192 96.0672C50.8944 96.6471 51.6868 97.074 52.5421 97.3186C53.3974 97.5632 54.2953 97.6197 55.1745 97.4843C62.4003 96.3648 69.2505 93.518 75.1451 89.1849C81.0396 84.8518 85.805 79.1601 89.0378 72.5914C89.4264 71.8018 89.6407 70.9376 89.6661 70.0577C89.6915 69.1777 89.5274 68.3025 89.1849 67.4918Z" fill="#6A6884"/>
<path d="M83.6595 14.2583C83.0263 13.6375 82.267 13.1606 81.4332 12.8602C80.5995 12.5598 79.7108 12.4429 78.8279 12.5174C77.945 12.592 77.0884 12.8562 76.3166 13.2921C75.5448 13.7281 74.8759 14.3255 74.3554 15.0437L59.1504 36.0044C60.8996 37.7606 62.2863 39.8447 63.2313 42.1376C64.1763 44.4306 64.6611 46.8876 64.658 49.3682C64.658 49.8297 64.6358 50.2856 64.6033 50.7389L88.7727 58.6044C89.6273 58.8806 90.5317 58.967 91.423 58.8574C92.3144 58.7478 93.1711 58.445 93.9336 57.9699C94.6961 57.4948 95.3461 56.8589 95.8382 56.1065C96.3302 55.3542 96.6527 54.5034 96.7829 53.6135C97.1221 51.3508 97.2924 49.0658 97.2924 46.7777C97.3112 40.719 96.114 34.7182 93.7721 29.1319C91.4301 23.5455 87.9912 18.4875 83.6595 14.2583Z" fill="#09BF30"/>
<path d="M45.7379 30.4185C48.9931 30.4148 52.1936 31.2566 55.027 32.8616L64.3074 20.0681C64.7805 19.4166 65.1068 18.67 65.2638 17.8799C65.4207 17.0897 65.4047 16.2749 65.2167 15.4916C65.0347 14.7232 64.6884 14.0036 64.2016 13.3823C63.7149 12.761 63.0994 12.2529 62.3976 11.8931C56.6679 8.97451 50.3323 7.44875 43.9042 7.43937C37.4761 7.43 31.1361 8.93728 25.398 11.8391C24.6743 12.2048 24.0387 12.7237 23.5352 13.3599C23.0316 13.996 22.6722 14.7342 22.4818 15.5233C22.294 16.3011 22.2773 17.1105 22.4329 17.8955C22.5884 18.6804 22.9126 19.4221 23.3828 20.0691L33.9107 34.5823C37.2627 31.8824 41.4365 30.4131 45.7379 30.4185Z" fill="#E6E6E6"/>
</g>
<defs>
<clipPath id="clip0_626_83">
<rect width="221" height="178" fill="white"/>
</clipPath>
</defs>
</svg>
