<svg xmlns="http://www.w3.org/2000/svg" width="940.67538" height="433.96214" viewBox="0 0 940.67538 433.96214" xmlns:xlink="http://www.w3.org/1999/xlink" role="img" artist="Katerina Limpitsouni" source="https://undraw.co/"><path d="M329.153,642.83294c-22.523-14.678-38.89925-41.06206-35.54763-67.73564a123.86333,123.86333,0,0,0,76.43469,37.27763c11.2188,1.12255,23.81371,1.203,31.78082,9.181,4.95743,4.964,7.06374,12.21938,7.17209,19.23382.10818,7.01478-1.57724,13.919-3.25174,20.7319l.41151,1.70229C379.28745,662.23116,351.676,657.51093,329.153,642.83294Z" transform="translate(-129.66231 -233.01893)" fill="#f0f0f0"/><path d="M294.16944,575.09153a105.8698,105.8698,0,0,0,42.01323,49.7772,45.59136,45.59136,0,0,0,13.05747,5.79236,26.14868,26.14868,0,0,0,13.75175-.52792c4.17968-1.22258,8.31345-2.95716,12.71753-3.14244a16.01086,16.01086,0,0,1,12.09044,5.02735c3.96164,3.99276,6.25234,9.17088,8.31649,14.3125,2.29184,5.70878,4.5819,11.67473,9.24952,15.903.56555.51231-.26246,1.3599-.82716.84835-8.12086-7.35651-9.01471-19.15919-15.39806-27.6937-2.9786-3.98236-7.17537-7.09121-12.306-7.22264-4.48656-.11493-8.75087,1.67014-12.97218,2.9446a27.90252,27.90252,0,0,1-13.427,1.01719,42.148,42.148,0,0,1-13.232-5.269,102.71281,102.71281,0,0,1-24.765-20.42666A107.7473,107.7473,0,0,1,293.027,575.40658c-.28775-.704.85653-1.01448,1.14241-.315Z" transform="translate(-129.66231 -233.01893)" fill="#fff"/><path d="M329.878,621.43847a15.88382,15.88382,0,0,1-20.25535,3.572c-.65656-.38743-.08535-1.42589.57208-1.03794a14.70808,14.70808,0,0,0,18.83491-3.36126c.4837-.58934,1.32929.24119.84836.82716Z" transform="translate(-129.66231 -233.01893)" fill="#fff"/><path d="M360.95427,631.03218a30.61481,30.61481,0,0,0-9.85329-20.01752c-.56372-.51431.26412-1.362.82716-.84836a31.844,31.844,0,0,1,10.2109,20.85089c.06223.76138-1.12287.77223-1.18477.015Z" transform="translate(-129.66231 -233.01893)" fill="#fff"/><path d="M305.73685,596.77673a8.991,8.991,0,0,0,3.34676-7.84756c-.07185-.76022,1.11338-.77026,1.18477-.015a10.07518,10.07518,0,0,1-3.68318,8.68971.61233.61233,0,0,1-.83775.0106.59543.59543,0,0,1-.0106-.83776Z" transform="translate(-129.66231 -233.01893)" fill="#fff"/><path d="M370.43292,526.28515c.05836.47341.11673.94682.18388,1.42507a118.40619,118.40619,0,0,0,3.986,18.78915c.13435.47733.27769.95906.42547,1.43154a124.82721,124.82721,0,0,0,21.46806,40.63524,121.2228,121.2228,0,0,0,12.52975,13.5c6.23281,5.76649,13.44959,11.52292,17.30008,18.79753a20.798,20.798,0,0,1,1.08726,2.33295l-19.21583,39.39325c-.0886.06761-.16847.14-.25728.20807l-.69531,1.60793c-.24779-.1991-.50051-.41093-.7483-.61-.14422-.1149-.28416-.23858-.42838-.35347-.09479-.07938-.18942-.15923-.27949-.22544-.03165-.0263-.06309-.053-.0858-.075-.09007-.06621-.16671-.13728-.24779-.1991q-2.12385-1.77024-4.23021-3.5765c-.009-.00439-.009-.00439-.01371-.01756-10.67621-9.2025-20.67794-19.37715-28.8174-30.74642-.24477-.34214-.49876-.68823-.73475-1.04837a115.67336,115.67336,0,0,1-9.60945-16.24781,102.26243,102.26243,0,0,1-4.01577-9.53594,85.03679,85.03679,0,0,1-4.997-26.114c-.5678-17.76774,4.55317-35.51929,16.47547-48.39615C369.81759,526.93084,370.11869,526.61,370.43292,526.28515Z" transform="translate(-129.66231 -233.01893)" fill="#f0f0f0"/><path d="M370.8897,526.6176a105.86971,105.86971,0,0,0,3.5759,65.03916,45.59123,45.59123,0,0,0,6.93826,12.48638,26.14854,26.14854,0,0,0,11.29785,7.858c4.07331,1.54029,8.41823,2.64414,12.04619,5.14777a16.01082,16.01082,0,0,1,6.62673,11.29334c.75923,5.57317-.52935,11.08677-1.97686,16.43482-1.60717,5.938-3.37061,12.08024-2.18949,18.26653.1431.74956-1.02832.92778-1.17121.17936-2.05493-10.76309,4.33741-20.725,4.379-31.38257.01942-4.973-1.45972-9.982-5.47715-13.176-3.51307-2.793-7.99263-3.93512-12.13042-5.459a27.90252,27.90252,0,0,1-11.33314-7.27183A42.14812,42.14812,0,0,1,374.08266,593.86a102.71241,102.71241,0,0,1-7.47521-31.21979,107.747,107.747,0,0,1,3.18042-36.45885c.19411-.73538,1.29468-.29432,1.10183.43626Z" transform="translate(-129.66231 -233.01893)" fill="#fff"/><path d="M371.4969,585.122a15.88383,15.88383,0,0,1-18.32338-9.343c-.291-.70464.79034-1.18989,1.08169-.48431a14.70807,14.70807,0,0,0,17.06233,8.65614c.741-.17934.91615.9929.17936,1.17121Z" transform="translate(-129.66231 -233.01893)" fill="#fff"/><path d="M390.53351,611.49215a30.61477,30.61477,0,0,0,4.18463-21.91524c-.14045-.75,1.03093-.92849,1.17121-.17936a31.844,31.844,0,0,1-4.40084,22.79594c-.40871.64539-1.36149-.05946-.955-.70134Z" transform="translate(-129.66231 -233.01893)" fill="#fff"/><path d="M367.06964,550.89639a8.991,8.991,0,0,0,7.397-4.25086c.40033-.65025,1.35272.05533.955.70134a10.07517,10.07517,0,0,1-8.17261,4.72073.61235.61235,0,0,1-.67529-.49593.59543.59543,0,0,1,.49593-.67528Z" transform="translate(-129.66231 -233.01893)" fill="#fff"/><path d="M1016.50054,642.83294c22.523-14.678,38.89925-41.06206,35.54763-67.73564a123.8633,123.8633,0,0,1-76.43468,37.27763c-11.21881,1.12255-23.81372,1.203-31.78083,9.181-4.95742,4.964-7.06373,12.21938-7.17208,19.23382-.10818,7.01478,1.57723,13.919,3.25173,20.7319l-.41151,1.70229C966.36609,662.23116,993.97752,657.51093,1016.50054,642.83294Z" transform="translate(-129.66231 -233.01893)" fill="#f0f0f0"/><path d="M1051.4841,575.09153a105.86975,105.86975,0,0,1-42.01323,49.7772,45.59136,45.59136,0,0,1-13.05747,5.79236,26.14869,26.14869,0,0,1-13.75175-.52792c-4.17967-1.22258-8.31345-2.95716-12.71753-3.14244a16.01088,16.01088,0,0,0-12.09044,5.02735c-3.96163,3.99276-6.25234,9.17088-8.31649,14.3125-2.29184,5.70878-4.58189,11.67473-9.24952,15.903-.56554.51231.26247,1.3599.82716.84835,8.12087-7.35651,9.01471-19.15919,15.39807-27.6937,2.97859-3.98236,7.17536-7.09121,12.306-7.22264,4.48656-.11493,8.75087,1.67014,12.97219,2.9446a27.90248,27.90248,0,0,0,13.427,1.01719,42.148,42.148,0,0,0,13.232-5.269,102.713,102.713,0,0,0,24.765-20.42666,107.7473,107.7473,0,0,0,19.41136-31.02519c.28776-.704-.85653-1.01448-1.14241-.315Z" transform="translate(-129.66231 -233.01893)" fill="#fff"/><path d="M1015.77557,621.43847a15.88383,15.88383,0,0,0,20.25536,3.572c.65655-.38743.08534-1.42589-.57209-1.03794a14.70808,14.70808,0,0,1-18.83491-3.36126c-.48369-.58934-1.32928.24119-.84836.82716Z" transform="translate(-129.66231 -233.01893)" fill="#fff"/><path d="M984.69927,631.03218a30.61478,30.61478,0,0,1,9.8533-20.01752c.56371-.51431-.26413-1.362-.82716-.84836a31.844,31.844,0,0,0-10.21091,20.85089c-.06223.76138,1.12288.77223,1.18477.015Z" transform="translate(-129.66231 -233.01893)" fill="#fff"/><path d="M1039.9167,596.77673a8.991,8.991,0,0,1-3.34677-7.84756c.07186-.76022-1.11338-.77026-1.18476-.015a10.07515,10.07515,0,0,0,3.68317,8.68971.61235.61235,0,0,0,.83776.0106.59543.59543,0,0,0,.0106-.83776Z" transform="translate(-129.66231 -233.01893)" fill="#fff"/><path d="M975.22063,526.28515c-.05837.47341-.11674.94682-.18388,1.42507a118.40733,118.40733,0,0,1-3.986,18.78915c-.13434.47733-.27768.95906-.42547,1.43154a124.82719,124.82719,0,0,1-21.46805,40.63524,121.22469,121.22469,0,0,1-12.52975,13.5c-6.23282,5.76649-13.44959,11.52292-17.30009,18.79753a20.79612,20.79612,0,0,0-1.08725,2.33295L937.456,662.58984c.0886.06761.16847.14.25728.20807l.69532,1.60793c.24779-.1991.50051-.41093.7483-.61.14422-.1149.28415-.23858.42837-.35347.09479-.07938.18942-.15923.2795-.22544.03165-.0263.06308-.053.08579-.075.09008-.06621.16671-.13728.24779-.1991q2.12386-1.77024,4.23022-3.5765c.009-.00439.009-.00439.01371-.01756,10.6762-9.2025,20.67794-19.37715,28.81739-30.74642.24478-.34214.49876-.68823.73476-1.04837a115.6733,115.6733,0,0,0,9.60944-16.24781,102.25973,102.25973,0,0,0,4.01577-9.53594,85.03649,85.03649,0,0,0,4.997-26.114c.5678-17.76774-4.55316-35.51929-16.47547-48.39615C975.836,526.93084,975.53485,526.61,975.22063,526.28515Z" transform="translate(-129.66231 -233.01893)" fill="#f0f0f0"/><path d="M974.76384,526.6176a105.86971,105.86971,0,0,1-3.5759,65.03916,45.59123,45.59123,0,0,1-6.93826,12.48638,26.14857,26.14857,0,0,1-11.29784,7.858c-4.07332,1.54029-8.41824,2.64414-12.0462,5.14777a16.01082,16.01082,0,0,0-6.62673,11.29334c-.75923,5.57317.52936,11.08677,1.97686,16.43482,1.60718,5.938,3.37061,12.08024,2.1895,18.26653-.14311.74956,1.02831.92778,1.17121.17936,2.05493-10.76309-4.33742-20.725-4.379-31.38257-.01942-4.973,1.45973-9.982,5.47716-13.176,3.51307-2.793,7.99262-3.93512,12.13041-5.459a27.90245,27.90245,0,0,0,11.33314-7.27183A42.1479,42.1479,0,0,0,971.57088,593.86a102.71241,102.71241,0,0,0,7.47521-31.21979,107.74669,107.74669,0,0,0-3.18042-36.45885c-.19411-.73538-1.29467-.29432-1.10183.43626Z" transform="translate(-129.66231 -233.01893)" fill="#fff"/><path d="M974.15664,585.122A15.88383,15.88383,0,0,0,992.48,575.779c.291-.70464-.79034-1.18989-1.08169-.48431a14.70807,14.70807,0,0,1-17.06233,8.65614c-.741-.17934-.91615.9929-.17936,1.17121Z" transform="translate(-129.66231 -233.01893)" fill="#fff"/><path d="M955.12,611.49215a30.61482,30.61482,0,0,1-4.18463-21.91524c.14045-.75-1.03093-.92849-1.17121-.17936a31.844,31.844,0,0,0,4.40084,22.79594c.40872.64539,1.36149-.05946.955-.70134Z" transform="translate(-129.66231 -233.01893)" fill="#fff"/><path d="M978.58391,550.89639a8.991,8.991,0,0,1-7.397-4.25086c-.40033-.65025-1.35272.05533-.955.70134a10.07519,10.07519,0,0,0,8.17262,4.72073.61235.61235,0,0,0,.67528-.49593.59542.59542,0,0,0-.49592-.67528Z" transform="translate(-129.66231 -233.01893)" fill="#fff"/><path d="M373.514,513.394a6.80323,6.80323,0,0,1-1.614-10.30633l-11.9808-20.999,12.53719.80994,9.45509,19.81686A6.8401,6.8401,0,0,1,373.514,513.394Z" transform="translate(-129.66231 -233.01893)" fill="#ffb6b6"/><polygon points="151.623 423.528 159.918 423.528 163.864 391.535 151.622 391.536 151.623 423.528" fill="#ffb6b6"/><path d="M279.17,653.83931l16.33465-.00066h.00066A10.41026,10.41026,0,0,1,305.915,664.2482v.33827l-26.74453.001Z" transform="translate(-129.66231 -233.01893)" fill="#2f2e41"/><polygon points="208.454 423.528 216.748 423.528 220.694 391.535 208.452 391.536 208.454 423.528" fill="#ffb6b6"/><path d="M336.00016,653.83931l16.33465-.00066h.00066a10.41028,10.41028,0,0,1,10.40971,10.40955v.33827l-26.74453.001Z" transform="translate(-129.66231 -233.01893)" fill="#2f2e41"/><path d="M359.44421,482.991s2.28143,32.48881-2.21187,48.85109-5.29565,115.3117-5.29565,115.3117H336.87553l-13.054-134.69112L293.72716,647.62875l-14.34584-.9864,7.8675-159.27511Z" transform="translate(-129.66231 -233.01893)" fill="#2f2e41"/><path d="M293.47263,373.47266l11.5139-8.40205,19.29332,4.201,5.22257,12.40944,8.99914,4.46184a20.399,20.399,0,0,1,11.12709,15.35249l12.85643,88.78025-75.23626-2.90841-9.10831-104.55593a8.19691,8.19691,0,0,1,7.69034-8.89447Z" transform="translate(-129.66231 -233.01893)" fill="#3f3d56"/><polygon points="213.6 160.059 220.549 169.426 250.815 261.738 236.628 267.418 213.911 224.403 213.6 160.059" fill="#3f3d56"/><circle cx="188.41106" cy="110.861" r="16.80412" fill="#ffb9b9"/><polygon points="151.778 179.997 179.2 218.137 209.852 238.125 151.778 179.997" opacity="0.1"/><path d="M309.16784,356.028c-1.16887-2.33371-2.37135-4.87393-1.92456-7.44547s3.39783-4.81222,5.67536-3.53733c.94491-3.415,5.12808-4.90953,8.64936-4.5153s6.76352,2.09271,10.231,2.8219,7.67849.15074,9.5525-2.8564l-4.484-.07759,4.6694-5.41592-5.4127-.40495c1.87479-2.02343,1.37677-5.46112-.43824-7.53834s-4.56922-3.06007-7.25675-3.68158a40.4285,40.4285,0,0,0-16.34248-.37566A21.24535,21.24535,0,0,0,304.826,325.528a14.44494,14.44494,0,0,0-5.07583,5.264,17.37739,17.37739,0,0,0-2.0624,7.91942,22.14507,22.14507,0,0,0,9.75728,18.83679" transform="translate(-129.66231 -233.01893)" fill="#2f2e41"/><path d="M934.835,665.01893H413.34668a20.27914,20.27914,0,0,1-20.25635-20.25586V253.27479a20.27913,20.27913,0,0,1,20.25635-20.25586H934.835a20.279,20.279,0,0,1,20.25586,20.25586V644.76307A20.279,20.279,0,0,1,934.835,665.01893Z" transform="translate(-129.66231 -233.01893)" fill="#e4e4e4"/><path d="M803.58673,412.76872H723.08648a15,15,0,0,1,0-30h80.50025a15,15,0,0,1,0,30Z" transform="translate(-129.66231 -233.01893)" fill="#fff"/><path d="M733.08659,453.76875h-19a5.5,5.5,0,0,1,0-11h19a5.5,5.5,0,0,1,0,11Z" transform="translate(-129.66231 -233.01893)" fill="#fff"/><path d="M812.08659,453.76875h-19a5.5,5.5,0,0,1,0-11h19a5.5,5.5,0,0,1,0,11Z" transform="translate(-129.66231 -233.01893)" fill="#fff"/><path d="M772.08659,453.76875h-19a5.5,5.5,0,0,1,0-11h19a5.5,5.5,0,0,1,0,11Z" transform="translate(-129.66231 -233.01893)" fill="#fff"/><path d="M733.08659,474.76875h-19a5.5,5.5,0,0,1,0-11h19a5.5,5.5,0,0,1,0,11Z" transform="translate(-129.66231 -233.01893)" fill="#fff"/><path d="M812.08659,474.76875h-19a5.5,5.5,0,0,1,0-11h19a5.5,5.5,0,0,1,0,11Z" transform="translate(-129.66231 -233.01893)" fill="#fff"/><path d="M772.08659,474.76875h-19a5.5,5.5,0,0,1,0-11h19a5.5,5.5,0,0,1,0,11Z" transform="translate(-129.66231 -233.01893)" fill="#fff"/><path d="M733.08659,495.76875h-19a5.5,5.5,0,0,1,0-11h19a5.5,5.5,0,0,1,0,11Z" transform="translate(-129.66231 -233.01893)" fill="#fff"/><path d="M812.08659,495.76875h-19a5.5,5.5,0,0,1,0-11h19a5.5,5.5,0,0,1,0,11Z" transform="translate(-129.66231 -233.01893)" fill="#fff"/><path d="M772.08659,495.76875h-19a5.5,5.5,0,0,1,0-11h19a5.5,5.5,0,0,1,0,11Z" transform="translate(-129.66231 -233.01893)" fill="#fff"/><path d="M733.08659,516.76875h-19a5.5,5.5,0,0,1,0-11h19a5.5,5.5,0,1,1,0,11Z" transform="translate(-129.66231 -233.01893)" fill="#fff"/><path d="M812.08659,516.76875h-19a5.5,5.5,0,0,1,0-11h19a5.5,5.5,0,1,1,0,11Z" transform="translate(-129.66231 -233.01893)" fill="#fff"/><path d="M772.08659,516.76875h-19a5.5,5.5,0,0,1,0-11h19a5.5,5.5,0,1,1,0,11Z" transform="translate(-129.66231 -233.01893)" fill="#fff"/><circle cx="474.92428" cy="210.74982" r="51" fill="#cacaca"/><path d="M604.58661,506.26872a15.017,15.017,0,0,1-15-15v-95a14.99994,14.99994,0,1,1,29.99987,0v95A15.017,15.017,0,0,1,604.58661,506.26872Z" transform="translate(-129.66231 -233.01893)" fill="#fff"/><path d="M737.82281,406.3278h-14a2,2,0,0,1,0-4h14a2,2,0,1,1,0,4Z" transform="translate(-129.66231 -233.01893)" fill="#e4e4e4"/><path d="M759.82281,406.8278h-14a2,2,0,0,1,0-4h14a2,2,0,1,1,0,4Z" transform="translate(-129.66231 -233.01893)" fill="#e4e4e4"/><path d="M781.82281,407.3278h-14a2,2,0,0,1,0-4h14a2,2,0,1,1,0,4Z" transform="translate(-129.66231 -233.01893)" fill="#e4e4e4"/><path d="M803.82281,407.8278h-14a2,2,0,0,1,0-4h14a2,2,0,1,1,0,4Z" transform="translate(-129.66231 -233.01893)" fill="#e4e4e4"/><path d="M459.58654,603.26779a18.69348,18.69348,0,0,0,5.56006,13.31h-8.26077a18.55905,18.55905,0,0,1-18.55906-18.55906V297.13684a18.55905,18.55905,0,0,1,18.55906-18.55905h12.021a18.74383,18.74383,0,0,0-9.32031,16.2Z" transform="translate(-129.66231 -233.01893)" fill="#cacaca"/><path d="M1069.147,666.98107H130.853a1.19069,1.19069,0,0,1,0-2.38137h938.294a1.19068,1.19068,0,0,1,0,2.38137Z" transform="translate(-129.66231 -233.01893)" fill="#cacaca"/><path d="M457.58654,366.49777q-9.47975-2.65494-19.02979-4.92a543.55875,543.55875,0,0,0-66.08984-11.52,14.78536,14.78536,0,0,0-18.03028,10.41l-11.10986,41a14.77688,14.77688,0,0,0,10.39014,18.11l.1499.03c14.7002,1.67,29.54,3.99,44.29981,6.95,1.32031.26,2.63037.53,3.95019.81q7.095,1.47006,14.1499,3.14c2.06006.48,4.10987.98,6.16992,1.49q8.31006,2.07,16.63038,4.41,9.25488,2.61,18.51953,5.57c.67041.2,1.34033.41,2,.63v-75.54C458.92687,366.86777,458.257,366.67776,457.58654,366.49777Z" transform="translate(-129.66231 -233.01893)" fill="#fff"/><path d="M457.58654,366.49777q-9.47975-2.65494-19.02979-4.92a543.55875,543.55875,0,0,0-66.08984-11.52,14.78536,14.78536,0,0,0-18.03028,10.41l-11.10986,41a14.77688,14.77688,0,0,0,10.39014,18.11l.1499.03c14.7002,1.67,29.54,3.99,44.29981,6.95,1.32031.26,2.63037.53,3.95019.81q7.095,1.47006,14.1499,3.14c2.06006.48,4.10987.98,6.16992,1.49q8.31006,2.07,16.63038,4.41,9.25488,2.61,18.51953,5.57c.67041.2,1.34033.41,2,.63v-2.11005c-.66992-.21-1.33985-.42-2-.63q-8.51954-2.715-17.01953-5.11-3.18018-.915-6.36036-1.77-5.72973-1.545-11.42968-2.96-3.03-.765-6.0503-1.47c-.1499-.04-.31-.07-.46-.11q-5.14525-1.215-10.31006-2.32c-1.31982-.28-2.63964-.56-3.96-.83-15.91992-3.3-31.96-5.87-47.83007-7.67a12.77678,12.77678,0,0,1-8.90967-15.63l11.10986-41.01a12.76707,12.76707,0,0,1,15.6499-8.97l.14991.02a541.78164,541.78164,0,0,1,65.26025,11.32c.21973.06.43994.11.65967.16q9.78076,2.34,19.5,5.06c.66015.18,1.33008.37,2,.57v-2.08C458.92687,366.86777,458.257,366.67776,457.58654,366.49777Z" transform="translate(-129.66231 -233.01893)" fill="#09BF30"/><path d="M459.58654,368.10782v73.43994c-.66992-.22-1.32959-.43-2-.63995q-8.86451-2.835-17.78955-5.34-8.56567-2.43-17.18994-4.57c-2.04-.5-4.07032-.99-6.11036-1.47-.08007-.36-.16015-.72-.23-1.08-.37011-1.72-.65966-3.46-.87988-5.21-.1001-.67-.16992-1.34-.24023-2.02a69.06736,69.06736,0,0,1,22.28027-57.86c.29-.28.58984-.55.89014-.81006q9.68994,2.31006,19.26953,5C458.257,367.7178,458.92687,367.90781,459.58654,368.10782Z" transform="translate(-129.66231 -233.01893)" fill="#09BF30"/><path d="M393.17687,398.17776l-27.81006-3.28a7.50176,7.50176,0,1,0-1.75976,14.9l27.80957,3.28a7.50183,7.50183,0,0,0,1.76025-14.9Zm4.58008,8.1a5.50577,5.50577,0,0,1-6.11035,4.81l-27.81006-3.28a5.498,5.498,0,0,1,1.29-10.92l27.81,3.28A5.52,5.52,0,0,1,397.757,406.2778Z" transform="translate(-129.66231 -233.01893)" fill="#09BF30"/><path d="M459.58654,385.30777v34.83a16.29819,16.29819,0,0,1-2,1.02,20.16757,20.16757,0,0,1-21.83985-3.54c-.27978-.25-.56006-.52-.83007-.8-.27-.27-.52979-.56-.77979-.85a20.18647,20.18647,0,0,1,23.44971-31.69A20.895,20.895,0,0,1,459.58654,385.30777Z" transform="translate(-129.66231 -233.01893)" fill="#fff"/><path d="M457.58654,410.51779q-11.80445,2.46-23.44971,5.45-4.34985,1.11-8.66992,2.3-5.15991,1.425-10.32031,2.95-6.58447,1.95-13.14991,4.08c-1.27.42-2.5498.84-3.83007,1.26-12.16993,4.06-24.25977,8.56-36.14991,13.47a14.787,14.787,0,0,0-10.79,17.81l10.03028,41.28a14.779,14.779,0,0,0,17.82959,10.86l.14013-.05a533.8519,533.8519,0,0,1,59.93018-20.51995q9.12012-2.535,18.42969-4.78c.67041-.16,1.33008-.32,2-.47v-74.05C458.91662,410.22781,458.257,410.36777,457.58654,410.51779Z" transform="translate(-129.66231 -233.01893)" fill="#fff"/><path d="M457.58654,410.51779q-11.80445,2.46-23.44971,5.45-4.34985,1.11-8.66992,2.3-5.15991,1.425-10.32031,2.95-6.58447,1.95-13.14991,4.08c-1.27.42-2.5498.84-3.83007,1.26-12.16993,4.06-24.25977,8.56-36.14991,13.47a14.787,14.787,0,0,0-10.79,17.81l10.03028,41.28a14.779,14.779,0,0,0,17.82959,10.86l.14013-.05a533.8519,533.8519,0,0,1,59.93018-20.51995q9.12012-2.535,18.42969-4.78c.67041-.16,1.33008-.32,2-.47v-2.06c-.66992.16-1.32959.32-2,.48-.5.12-1.00977.24-1.50977.36q-8.81982,2.145-17.45019,4.54c-.14991.04-.30957.09-.46.13a533.386,533.386,0,0,0-59.62989,20.45,12.788,12.788,0,0,1-15.33984-9.41l-10.02-41.28a12.77239,12.77239,0,0,1,9.37988-15.41l.1499-.05c12.9502-5.36005,26.12989-10.22,39.41016-14.54,1.27979-.42,2.56006-.83,3.83984-1.24q4.71021-1.485,9.43018-2.89,4.97973-1.485,9.94971-2.86.33032-.09.66015-.18,4.86036-1.335,9.75-2.58,10.845-2.76,21.83985-5.07c.66015-.13995,1.33008-.28,2-.41v-2.03C458.91662,410.22781,458.257,410.36777,457.58654,410.51779Z" transform="translate(-129.66231 -233.01893)" fill="#09BF30"/><path d="M459.58654,411.11777v72.01c-.65967.15-1.32959.3-2,.46q-9.38966,2.28-18.69971,4.86-.375-.41994-.72021-.84a69.12021,69.12021,0,0,1-15.73-55.61c.0503-.32995.11036-.67.17042-1,.0498-.32.10986-.65.16992-.97a68.50813,68.50813,0,0,1,2.55957-9.65c.13037-.38.26025-.76.40039-1.14q4.5747-1.25994,9.17969-2.42,11.26538-2.91,22.66992-5.29C458.24669,411.37778,458.91662,411.24777,459.58654,411.11777Z" transform="translate(-129.66231 -233.01893)" fill="#09BF30"/><path d="M413.11681,476.34781a7.50906,7.50906,0,0,0-9.77-4.13l-25.95019,10.52a7.50036,7.50036,0,0,0,5.64013,13.9l25.9502-10.52A7.51745,7.51745,0,0,0,413.11681,476.34781Zm-4.87988,7.91-25.9502,10.53a5.50411,5.50411,0,0,1-4.14013-10.2l25.95019-10.52a5.49947,5.49947,0,1,1,4.14014,10.19Z" transform="translate(-129.66231 -233.01893)" fill="#09BF30"/><path d="M459.58654,429.50778v39.21a19.61078,19.61078,0,0,1-2,.4,20.2054,20.2054,0,0,1-18.51953-32.71c.23-.29.46972-.57.73-.84.23974-.28.5-.55.77-.81a20.19723,20.19723,0,0,1,17.01953-5.64A17.20007,17.20007,0,0,1,459.58654,429.50778Z" transform="translate(-129.66231 -233.01893)" fill="#fff"/><path d="M457.58654,361.28781v99.81c.67041-.22,1.34033-.43,2-.63v-98.27C458.91662,361.88779,458.257,361.5878,457.58654,361.28781Zm0,0v99.81c.67041-.22,1.34033-.43,2-.63v-98.27C458.91662,361.88779,458.257,361.5878,457.58654,361.28781Zm0,0v99.81c.67041-.22,1.34033-.43,2-.63v-98.27C458.91662,361.88779,458.257,361.5878,457.58654,361.28781Zm0,7.29v115.01c.67041-.16,1.34033-.31,2-.46v-113.98C458.91662,368.94778,458.24669,368.75778,457.58654,368.57779Zm0,0v115.01c.67041-.16,1.34033-.31,2-.46v-113.98C458.91662,368.94778,458.24669,368.75778,457.58654,368.57779Zm0,0v115.01c.67041-.16,1.34033-.31,2-.46v-113.98C458.91662,368.94778,458.24669,368.75778,457.58654,368.57779Zm0,0v115.01c.67041-.16,1.34033-.31,2-.46v-113.98C458.91662,368.94778,458.24669,368.75778,457.58654,368.57779Zm0,0v116.05c.67041-.16,1.33008-.32,2-.47v-115.01C458.91662,368.94778,458.24669,368.75778,457.58654,368.57779Zm436.25-94.56H478.34679a20.79476,20.79476,0,0,0-20.76025,20.76v308.49a20.78542,20.78542,0,0,0,20.76025,20.75H893.83654a20.77527,20.77527,0,0,0,20.75-20.75v-308.49A20.77739,20.77739,0,0,0,893.83654,274.01779Zm18.75,329.25a18.76944,18.76944,0,0,1-18.75,18.75H478.34679a18.77786,18.77786,0,0,1-18.76025-18.75v-308.49a18.78835,18.78835,0,0,1,18.76025-18.76H893.83654a18.77157,18.77157,0,0,1,18.75,18.76Zm-455-234.69v114c.67041-.16,1.33008-.32,2-.48v-112.95C458.91662,368.94778,458.24669,368.75778,457.58654,368.57779Zm0,0v115.01c.67041-.16,1.34033-.31,2-.46v-113.98C458.91662,368.94778,458.24669,368.75778,457.58654,368.57779Zm0,0v115.01c.67041-.16,1.34033-.31,2-.46v-113.98C458.91662,368.94778,458.24669,368.75778,457.58654,368.57779Zm0,0v115.01c.67041-.16,1.34033-.31,2-.46v-113.98C458.91662,368.94778,458.24669,368.75778,457.58654,368.57779Zm0-7.29v99.81c.67041-.22,1.34033-.43,2-.63v-98.27C458.91662,361.88779,458.257,361.5878,457.58654,361.28781Zm0,0v99.81c.67041-.22,1.34033-.43,2-.63v-98.27C458.91662,361.88779,458.257,361.5878,457.58654,361.28781Z" transform="translate(-129.66231 -233.01893)" fill="#2f2e41"/><path d="M368.51272,466.89283a6.8032,6.8032,0,0,0-9.9903-3.00323l-19.17078-14.73023L338.44581,461.69l18.34377,12.067a6.8401,6.8401,0,0,0,11.72314-6.86416Z" transform="translate(-129.66231 -233.01893)" fill="#ffb6b6"/><path d="M291.26168,377.99533l-6.30828-2.9813s-10.16255,2.8586-5.22529,16.297l29.87924,55.66365,36.47886,21.35737,11.3721-10.07738-36.50509-28.88422Z" transform="translate(-129.66231 -233.01893)" fill="#3f3d56"/></svg>