<svg xmlns="http://www.w3.org/2000/svg" width="960" height="816.934" viewBox="0 0 960 816.934" xmlns:xlink="http://www.w3.org/1999/xlink" role="img" artist="Katerina Limpitsouni" source="https://undraw.co/"><g transform="translate(-137 -406.395)"><g transform="translate(445.9 525.378)"><path d="M803.731,786.83c-151.833,0-275.357-123.525-275.357-275.357S651.9,236.115,803.731,236.115a278.08,278.08,0,0,1,47.92,4.155,1.521,1.521,0,1,1-.559,2.991,275.028,275.028,0,0,0-47.361-4.1c-150.155,0-272.315,122.159-272.315,272.315s122.16,272.315,272.315,272.315,272.315-122.159,272.315-272.315a271.627,271.627,0,0,0-71.038-183.423,1.522,1.522,0,1,1,2.249-2.05,274.663,274.663,0,0,1,71.832,185.473C1079.089,663.305,955.564,786.83,803.731,786.83Z" transform="translate(-528.374 -221.594)" fill="#090814"/><g transform="translate(342.29)"><circle cx="54.48" cy="54.48" r="54.48" fill="#09BF30"/><path d="M791.466,300.452a6.058,6.058,0,0,1-4.848-2.425L771.755,278.21a6.06,6.06,0,0,1,9.7-7.272l9.724,12.964,24.974-37.461a6.06,6.06,0,0,1,10.085,6.723l-29.726,44.589a6.063,6.063,0,0,1-4.874,2.7Z" transform="translate(-744.417 -217.618)" fill="#fff"/></g><circle cx="2.363" cy="2.363" r="2.363" transform="translate(508.08 278.003)" fill="#fff"/></g><g transform="matrix(0.914, -0.407, 0.407, 0.914, 369.411, 481.663)"><path d="M185.055,87.952h-2.041V32.242A32.287,32.287,0,0,0,150.684,0H32.331A32.287,32.287,0,0,0,0,32.242V337.868a32.287,32.287,0,0,0,32.331,32.242H150.684a32.287,32.287,0,0,0,32.331-32.243V127.607h2.04Z" transform="translate(0 0)" fill="#090814"/><path d="M143.111,0H127.658a11.41,11.41,0,0,1-1.1,10.7,11.484,11.484,0,0,1-9.523,5.059H49.208A11.484,11.484,0,0,1,39.685,10.7,11.41,11.41,0,0,1,38.584,0H24.151A24.115,24.115,0,0,0,0,24.078v305.18a24.115,24.115,0,0,0,24.151,24.078H143.106a24.115,24.115,0,0,0,24.151-24.078V24.079A24.115,24.115,0,0,0,143.111,0Z" transform="translate(8.899 8.389)" fill="#fff"/><circle cx="22.527" cy="22.527" r="22.527" transform="translate(70.007 53.502)" fill="#09BF30"/><path d="M5.552,0h99.93a5.552,5.552,0,1,1,0,11.1H5.552a5.552,5.552,0,0,1,0-11.1Z" transform="translate(36.883 128.151)" fill="#e6e6e6"/><path d="M5.552,0H68.47a5.552,5.552,0,1,1,0,11.1H5.552a5.552,5.552,0,0,1,0-11.1Z" transform="translate(55.388 154.059)" fill="#e6e6e6"/><path d="M5.552,0h99.93a5.552,5.552,0,1,1,0,11.1H5.552a5.552,5.552,0,0,1,0-11.1Z" transform="translate(36.883 179.966)" fill="#e6e6e6"/><path d="M5.552,0H68.47a5.552,5.552,0,1,1,0,11.1H5.552a5.552,5.552,0,0,1,0-11.1Z" transform="translate(55.388 205.874)" fill="#e6e6e6"/><path d="M5.552,0H68.47a5.552,5.552,0,1,1,0,11.1H5.552a5.552,5.552,0,0,1,0-11.1Z" transform="translate(55.388 231.782)" fill="#e6e6e6"/><path d="M7.4,0H37.011a7.4,7.4,0,1,1,0,14.8H7.4A7.4,7.4,0,0,1,7.4,0Z" transform="translate(103.503 317.37)" fill="#09BF30"/></g><g transform="translate(804.51 726.883) rotate(20)"><path d="M287.656,415.016H23.606C10.574,415,.013,404.813,0,392.24V22.776C.013,10.2,10.574.013,23.606,0h264.05c13.032.013,23.593,10.2,23.606,22.776V392.24c-.013,12.573-10.574,22.763-23.606,22.776Z" fill="#090814"/><path d="M272.254,385.953H7.277A7.16,7.16,0,0,1,0,378.932V7.021A7.16,7.16,0,0,1,7.277,0H272.254a7.16,7.16,0,0,1,7.28,7.021V378.932A7.161,7.161,0,0,1,272.254,385.953Z" transform="translate(15.865 14.531)" fill="#fff"/><ellipse cx="2.008" cy="1.937" rx="2.008" ry="1.937" transform="translate(152.619 5.038)" fill="#fff"/><path d="M31.126,0A31.126,31.126,0,1,1,0,31.126,31.126,31.126,0,0,1,31.126,0Z" transform="translate(122.949 62.252)" fill="#09BF30"/><g transform="translate(93.379 168.081)"><path d="M6.225,0H118.279a6.225,6.225,0,0,1,0,12.45H6.225A6.225,6.225,0,1,1,6.225,0Z" transform="translate(0 0)" fill="#e6e6e6"/><path d="M6.225,0H76.778a6.225,6.225,0,1,1,0,12.45H6.225A6.225,6.225,0,1,1,6.225,0Z" transform="translate(20.751 29.051)" fill="#e6e6e6"/><path d="M6.225,0H118.279a6.225,6.225,0,0,1,0,12.45H6.225A6.225,6.225,0,1,1,6.225,0Z" transform="translate(0 58.102)" fill="#e6e6e6"/><path d="M6.225,0H76.778a6.225,6.225,0,1,1,0,12.45H6.225A6.225,6.225,0,1,1,6.225,0Z" transform="translate(20.751 87.153)" fill="#e6e6e6"/><path d="M6.225,0H76.778a6.225,6.225,0,1,1,0,12.45H6.225A6.225,6.225,0,1,1,6.225,0Z" transform="translate(20.751 116.204)" fill="#e6e6e6"/></g><path d="M6.225,0H35.276a6.225,6.225,0,1,1,0,12.45H6.225A6.225,6.225,0,1,1,6.225,0Z" transform="translate(212.696 339.794)" fill="#09BF30"/></g><g transform="translate(137 745.414)"><path d="M15.18,488.406c0,.674.37,1.216.83,1.216H429.74c.464,0,.83-.541.83-1.216s-.37-1.216-.83-1.216H16.01C15.55,487.191,15.18,487.732,15.18,488.406Z" transform="translate(85.249 -11.708)" fill="#ccc"/><rect width="14.772" height="2.606" transform="translate(235.946 472.689)" fill="#b6b3c5"/><rect width="14.772" height="2.606" transform="translate(366.717 473.124)" fill="#b6b3c5"/><path d="M324.873,370.945a21.285,21.285,0,0,1-42,0H229.146V487.38H378.6V370.945Z" transform="translate(5.026 -14.258)" fill="#d6d6e3"/><rect width="149.453" height="4.053" transform="translate(234.607 463.898)" fill="#090814"/><path d="M609.466,381.642H8.332A8.341,8.341,0,0,1,0,373.31V30.244a8.341,8.341,0,0,1,8.332-8.333H609.466a8.342,8.342,0,0,1,8.332,8.332V373.31A8.342,8.342,0,0,1,609.466,381.642Z" transform="translate(0 -21.911)" fill="#090814"/><rect width="588.255" height="331.925" transform="translate(13.997 13.119)" fill="#fff"/><path d="M46.335,0A46.335,46.335,0,1,1,0,46.335,46.335,46.335,0,0,1,46.335,0Z" transform="translate(81.858 132.582)" fill="#09BF30"/><path d="M9.267,0H176.072a9.267,9.267,0,1,1,0,18.534H9.267A9.267,9.267,0,0,1,9.267,0Z" transform="translate(267.198 83.158)" fill="#e6e6e6"/><path d="M9.267,0H114.293a9.267,9.267,0,1,1,0,18.534H9.267A9.267,9.267,0,0,1,9.267,0Z" transform="translate(298.087 126.404)" fill="#e6e6e6"/><path d="M9.267,0H176.072a9.267,9.267,0,1,1,0,18.534H9.267A9.267,9.267,0,0,1,9.267,0Z" transform="translate(267.198 169.649)" fill="#e6e6e6"/><path d="M9.267,0H114.293a9.267,9.267,0,1,1,0,18.534H9.267A9.267,9.267,0,0,1,9.267,0Z" transform="translate(298.087 212.895)" fill="#e6e6e6"/><path d="M9.267,0H114.293a9.267,9.267,0,1,1,0,18.534H9.267A9.267,9.267,0,0,1,9.267,0Z" transform="translate(298.087 256.141)" fill="#e6e6e6"/><path d="M9.267,0H52.513a9.267,9.267,0,1,1,0,18.534H9.267A9.267,9.267,0,0,1,9.267,0Z" transform="translate(471.843 304.793)" fill="#09BF30"/></g></g></svg>